<?xml version="1.0" encoding="utf-8"?>
<!-- Generator: Adobe Illustrator 14.0.0, SVG Export Plug-In . SVG Version: 6.00 Build 43363)  -->
<!DOCTYPE svg PUBLIC "-//W3C//DTD SVG 1.1//EN" "http://www.w3.org/Graphics/SVG/1.1/DTD/svg11.dtd">
<svg version="1.1" id="Ebene_1" xmlns="http://www.w3.org/2000/svg" xmlns:xlink="http://www.w3.org/1999/xlink" x="0px" y="0px"
	 width="595.28px" height="841.89px" viewBox="0 0 595.28 841.89" enable-background="new 0 0 595.28 841.89" xml:space="preserve">
<g>
	<rect x="321.185" y="382.552" fill="#96BD0D" width="213.815" height="77.218"/>
	<polygon fill="#96BD0D" points="78.847,431.888 78.847,436.26 60.471,436.26 60.471,397.855 65.309,397.855 65.309,431.888 	"/>
	<path fill="#96BD0D" d="M89.726,402.286c0,1.553-1.261,2.765-2.819,2.765c-1.61,0-2.829-1.212-2.829-2.821
		c0-1.618,1.218-2.824,2.829-2.824C88.514,399.406,89.726,400.677,89.726,402.286 M89.037,436.266h-4.378v-26.551h4.378V436.266z"/>
	<path fill="#96BD0D" d="M100.381,424.404c0.572,5.124,4.025,8.461,8.859,8.461c3.291,0,6.399-1.784,7.946-4.555l3.866,1.443
		c-2.186,4.433-6.74,7.146-11.812,7.146c-7.885,0-13.53-5.754-13.53-13.822c0-8.179,5.593-13.994,13.365-13.994
		c7.718,0,13.472,5.815,13.472,13.588c0,0.406,0,1.091-0.061,1.733H100.381z M117.887,421.177c-0.17-2.072-0.579-3.221-1.498-4.554
		c-1.668-2.241-4.375-3.625-7.313-3.625c-2.935,0-5.583,1.384-7.142,3.69c-0.804,1.268-1.151,2.354-1.498,4.489H117.887z"/>
	<path fill="#96BD0D" d="M133.265,436.266h-4.387v-38.411h4.387v16.408c2.64-3.625,5.468-5.182,9.323-5.182
		c7.432,0,12.616,5.76,12.616,13.999c0,8.12-5.13,13.816-12.379,13.816c-4.092,0-6.969-1.556-9.56-5.186V436.266z M133.195,423.015
		c0,6.048,3.465,10.085,8.649,10.085c5.237,0,8.753-3.97,8.753-9.906c0-5.933-3.574-10.198-8.585-10.198
		C136.946,412.995,133.195,417.204,133.195,423.015"/>
	<path fill="#96BD0D" d="M164.413,424.404c0.576,5.124,4.037,8.461,8.872,8.461c3.282,0,6.394-1.784,7.943-4.555l3.864,1.443
		c-2.189,4.433-6.738,7.146-11.807,7.146c-7.892,0-13.533-5.754-13.533-13.822c0-8.179,5.581-13.994,13.362-13.994
		c7.715,0,13.475,5.815,13.475,13.588c0,0.406,0,1.091-0.061,1.733H164.413z M181.919,421.177c-0.167-2.072-0.572-3.221-1.492-4.554
		c-1.668-2.241-4.378-3.625-7.313-3.625c-2.941,0-5.589,1.384-7.146,3.69c-0.8,1.268-1.147,2.354-1.5,4.489H181.919z"/>
	<path fill="#96BD0D" d="M205.191,416.97v-0.281c0-2.483-2.024-4.037-5.072-4.037c-2.877,0-4.783,1.495-4.783,3.746
		c0,2.419,1.038,3.221,5.931,4.549c3.407,0.925,5.185,1.79,6.455,3.05c1.324,1.328,2.131,3.228,2.131,5.188
		c0,4.601-3.799,7.715-9.441,7.715c-6.043,0-9.45-2.825-9.913-8.178h4.33c0.283,2.996,2.234,4.606,5.583,4.606
		c2.99,0,4.947-1.559,4.947-3.918c0-2.305-1.495-3.447-6.049-4.604c-5.76-1.558-8.348-3.977-8.348-8.003
		c0-4.614,3.751-7.721,9.329-7.721c5.644,0,9.036,2.882,9.273,7.887H205.191z"/>
	<polygon fill="#96BD0D" points="254.196,409.715 244.179,436.266 239.564,436.266 229.833,409.715 234.443,409.715 
		241.933,429.988 249.653,409.715 	"/>
	<path fill="#96BD0D" d="M283.158,423.08c0,7.772-5.925,13.816-13.584,13.816c-7.892,0-13.417-5.751-13.417-13.932
		c0-8.239,5.526-13.883,13.585-13.883C277.578,409.082,283.158,414.901,283.158,423.08 M260.644,423.015
		c0,5.878,3.629,9.854,9.042,9.854c5.242,0,8.987-4.086,8.987-9.854c0-5.926-3.574-9.897-8.933-9.897
		C264.273,413.117,260.644,417.089,260.644,423.015"/>
	<path fill="#96BD0D" d="M294.219,409.715v3.746c2.305-3.106,4.609-4.375,7.892-4.375c2.424,0,4.609,0.804,6.165,2.188
		c1.665,1.609,2.244,3.459,2.244,7.088v17.904h-4.378v-16.935c0-2.361-0.29-3.625-0.978-4.549c-0.749-1.096-2.365-1.79-4.149-1.79
		c-1.961,0-3.742,0.753-5.072,2.253c-1.261,1.381-1.724,2.649-1.724,4.836v16.184h-4.375v-26.551H294.219z"/>
	<path fill="#FFFFFF" d="M340.812,409.709v4.842c2.529-3.912,5.242-5.469,9.672-5.469c7.374,0,12.492,5.651,12.492,13.714
		c0,8.343-5.118,14.101-12.492,14.101c-2.073,0-3.979-0.457-5.818-1.376c-1.61-0.813-2.411-1.505-3.854-3.404v16.59h-4.375v-38.997
		H340.812z M340.812,423.418c0,5.815,3.507,9.679,8.75,9.679c5.242,0,8.756-4.092,8.756-10.135c0-3.278-0.811-5.701-2.533-7.429
		c-1.501-1.555-3.806-2.541-6.056-2.541C344.429,412.992,340.812,417.201,340.812,423.418"/>
	<path fill="#FFFFFF" d="M373.979,409.715v4.491c0.805-1.897,1.377-2.701,2.412-3.51c1.333-1.031,3.169-1.609,5.017-1.609h1.038
		v4.435c-0.462-0.06-0.861-0.06-1.218-0.06c-2.35,0-4.374,1.09-5.692,3.052c-1.154,1.663-1.557,3.221-1.557,6.283v13.47h-4.375
		v-26.551H373.979z"/>
	<path fill="#FFFFFF" d="M392.514,402.286c0,1.553-1.264,2.765-2.819,2.765c-1.613,0-2.818-1.212-2.818-2.821
		c0-1.618,1.205-2.824,2.818-2.824C391.309,399.406,392.514,400.677,392.514,402.286 M391.826,436.266h-4.381v-26.551h4.381V436.266
		z"/>
	<path fill="#FFFFFF" d="M403.167,424.404c0.581,5.124,4.033,8.461,8.871,8.461c3.279,0,6.391-1.784,7.949-4.555l3.854,1.443
		c-2.186,4.433-6.729,7.146-11.804,7.146c-7.891,0-13.539-5.754-13.539-13.822c0-8.179,5.59-13.994,13.372-13.994
		c7.715,0,13.469,5.815,13.469,13.588c0,0.406,0,1.091-0.055,1.733H403.167z M420.676,421.177c-0.171-2.072-0.578-3.221-1.495-4.554
		c-1.665-2.241-4.381-3.625-7.31-3.625c-2.944,0-5.593,1.384-7.143,3.69c-0.807,1.268-1.157,2.354-1.501,4.489H420.676z"/>
	<path fill="#FFFFFF" d="M436.051,436.266h-4.385v-38.411h4.385v16.408c2.648-3.625,5.468-5.182,9.322-5.182
		c7.44,0,12.622,5.76,12.622,13.999c0,8.12-5.124,13.816-12.385,13.816c-4.092,0-6.966-1.556-9.56-5.186V436.266z M435.996,423.015
		c0,6.048,3.455,10.085,8.634,10.085c5.242,0,8.756-3.97,8.756-9.906c0-5.933-3.568-10.198-8.579-10.198
		C439.737,412.995,435.996,417.204,435.996,423.015"/>
	<path fill="#FFFFFF" d="M467.208,424.404c0.578,5.124,4.027,8.461,8.865,8.461c3.285,0,6.394-1.784,7.946-4.555l3.854,1.443
		c-2.18,4.433-6.734,7.146-11.801,7.146c-7.879,0-13.529-5.754-13.529-13.822c0-8.179,5.587-13.994,13.359-13.994
		c7.712,0,13.483,5.815,13.483,13.588c0,0.406,0,1.091-0.069,1.733H467.208z M484.714,421.177c-0.164-2.072-0.578-3.221-1.498-4.554
		c-1.662-2.241-4.381-3.625-7.312-3.625c-2.936,0-5.59,1.384-7.137,3.69c-0.81,1.268-1.157,2.354-1.498,4.489H484.714z"/>
	<path fill="#FFFFFF" d="M507.977,416.97v-0.281c0-2.483-2.012-4.037-5.062-4.037c-2.887,0-4.78,1.495-4.78,3.746
		c0,2.419,1.032,3.221,5.925,4.549c3.397,0.925,5.182,1.79,6.454,3.05c1.321,1.328,2.132,3.228,2.132,5.188
		c0,4.601-3.806,7.715-9.447,7.715c-6.044,0-9.436-2.825-9.897-8.178h4.316c0.28,2.996,2.244,4.606,5.581,4.606
		c2.999,0,4.947-1.559,4.947-3.918c0-2.305-1.492-3.447-6.04-4.604c-5.755-1.558-8.343-3.977-8.343-8.003
		c0-4.614,3.736-7.721,9.322-7.721c5.639,0,9.043,2.882,9.268,7.887H507.977z"/>
	<path fill="#FFFFFF" d="M511.725,400.354h-0.998v-7.859h2.143c1.681,0,2.694,0.865,2.694,2.291c0,0.888-0.423,1.609-1.178,1.996
		c-0.365,0.192-0.71,0.262-1.403,0.308l3.051,3.265h-1.258l-3.051-3.294V400.354z M512.711,396.385c1.19,0,1.839-0.542,1.839-1.536
		c0-0.976-0.591-1.5-1.681-1.5h-1.145v3.036H512.711z"/>
	<path fill="#FFFFFF" d="M505.788,396.381c0,4.016,3.27,7.292,7.288,7.292c4.02,0,7.283-3.276,7.283-7.292s-3.264-7.292-7.283-7.292
		C509.058,389.09,505.788,392.366,505.788,396.381 M506.738,396.381c0-3.492,2.84-6.338,6.338-6.338
		c3.489,0,6.339,2.847,6.339,6.338c0,3.492-2.85,6.339-6.339,6.339C509.578,402.72,506.738,399.874,506.738,396.381"/>
</g>
</svg>
